<svg width="24" height="24" viewBox="0 0 24 24" fill="none" xmlns="http://www.w3.org/2000/svg">
<path d="M12.0003 22.0005C7.95386 22.0028 4.3048 19.5664 2.75597 15.8281C1.20714 12.0898 2.06384 7.78655 4.9263 4.92647C7.4536 2.39917 11.1372 1.41215 14.5896 2.3372C18.0419 3.26226 20.7385 5.95885 21.6636 9.4112C22.5886 12.8636 21.6016 16.5472 19.0743 19.0745C17.2018 20.9555 14.6545 22.0091 12.0003 22.0005ZM4.0003 12.1725C4.04762 16.5737 7.64141 20.11 12.0428 20.0865C16.4443 20.0627 19.9998 16.488 19.9998 12.0865C19.9998 7.68497 16.4443 4.11024 12.0428 4.08647C7.64141 4.06293 4.04762 7.59923 4.0003 12.0005V12.1725ZM9.4093 16.0005L8.0003 14.5905L10.5903 12.0005L8.0003 9.41047L9.4103 8.00047L12.0003 10.5905L14.5903 8.00047L16.0003 9.41047L13.4103 12.0005L16.0003 14.5905L14.5913 16.0005L12.0003 13.4105L9.4103 16.0005H9.4093Z" fill="#EE7E7E"/>
</svg>
