<svg width="20" height="20" viewBox="0 0 20 20" fill="none" xmlns="http://www.w3.org/2000/svg">
<path d="M5.8335 9.9987L11.6668 4.16536L10.8335 8.33203L14.1668 9.9987L8.3335 15.832L9.16683 11.6654L5.8335 9.9987Z" fill="#FBE76B"/>
<path d="M10.0002 0.832031C4.93755 0.832031 0.833496 4.93609 0.833496 9.9987C0.833496 15.0613 4.93755 19.1654 10.0002 19.1654C15.0628 19.1654 19.1668 15.0613 19.1668 9.9987C19.1668 4.93609 15.0628 0.832031 10.0002 0.832031ZM2.50016 9.9987C2.50016 5.85656 5.85803 2.4987 10.0002 2.4987C14.1423 2.4987 17.5002 5.85656 17.5002 9.9987C17.5002 14.1408 14.1423 17.4987 10.0002 17.4987C5.85803 17.4987 2.50016 14.1408 2.50016 9.9987Z" fill="#FBE76B"/>
</svg>
